<svg id="fbf50ba1-f386-4a18-aea9-25a2da570979" data-name="Layer 1" xmlns="http://www.w3.org/2000/svg" xmlns:xlink="http://www.w3.org/1999/xlink" width="210mm" height="96.7mm" viewBox="0 0 595.3 274"><defs><clipPath id="b2a76c35-65e6-47c7-bfe5-9d7146c2087d"><rect x="-1.9" y="-2" width="598.9" height="277.93" fill="none"/></clipPath></defs><title>T-cells 3D illustration_b_noT</title><g clip-path="url(#b2a76c35-65e6-47c7-bfe5-9d7146c2087d)"><rect x="-22.9" y="-46.9" width="642.9" height="329.94" fill="#100"/><path d="M-9,262.9c7.4-15.1,16.4-17.8,29.2-16.2C30.5,247.9-10.2,279.7-9,262.9Z" fill="#7a1c60"/><path d="M611.7,203.1l16.3,9.7a84.5,84.5,0,0,1-41.2-.9" fill="#791f61"/><path d="M613.9,2.4c-16.3-1,19.7-44.1,2.9-50.1-26.3-9.5-36.9,35.7-58.7,36.2-17.5-8.4,12.6-48.1,27.6-39.4" fill="#782563"/><path d="M-7.7,216.5C4.5,204.6,5.4,245.3,3.6,243.9-9.5,233.2-6,235.5-22,229.4A20.8,20.8,0,0,0-7.7,216.5Z" fill="#802a64"/><path d="M1.4,240.9c12.8-8.5,9.4-3,5.3,6.9C.4,263,.7,238.5,1.4,240.9Z" fill="#8b426d"/><path d="M1.7,242l-2.6,3.4Z" fill="#802a64"/><path d="M10,242.7c4.9-2.9,19.9-6,23,2.7S10,251,10,242.7Z" fill="#843468"/><path d="M22.6,251.1c21.2-2.8-13.4,20.5-19.2,11.5A81.5,81.5,0,0,1,22.6,251.1Z" fill="#7e2d65"/><path d="M13.1,255.9c-5.9,4.3-9.1,8.7-15.4,10.6C-4.9,257.9.3,254.4,13.1,255.9Z" fill="#975174"/><path d="M9.4,276.8C-4.3,281.5-9.4,281-6,275.2-1.1,265.4,23.7,266,9.4,276.8Z" fill="#843468"/><path d="M7.8,268.9c-9.5,1,2.7-11.5,18-1.2C29.4,280.2,9.5,269.5,7.8,268.9Z" fill="#75125e"/><path d="M22.4,271.9c3.1-5.9,13.2-12.1,13.3-.6C33.8,280.4,16.5,290.9,22.4,271.9Z" fill="#843468"/><path d="M21.6,280.6A31.8,31.8,0,0,1,47,268.1c-.9,26.6,20.1-3.6,22.1,1-4.3-11.3-20.7-10.2-25.9-21.9,1.9,4.3,65.6-17.6,50.4,25.1C86,293.7,12.9,297.8,21.6,280.6Z" fill="#791f61"/><path d="M269,33c17.5-9.9-24.7,13.5-33.7,13.8-4,.1,39.4-67.7,56.1-40.3C278.6,10.8,271.2,19.6,269,33Z" fill="#4e123d"/><path d="M231.7,40.9q27.4,11-8.4,7.9C228.4,39.8,221.2,44.8,231.7,40.9Z" fill="#6d3056"/><path d="M230.5,41.4l-4.3-.9Z" fill="#662552"/><path d="M570.6,277.3c-17.3,5.6,34.7-52.2,39.6-21.7C607.8,266.6,576.6,274,570.6,277.3Z" fill="#88426e"/><path d="M475.5,119.4c-4.3-1.6-24.3-11.3-25-12.7C429,67.4,525.1,135.7,475.5,119.4Z" fill="#6d005a"/><path d="M573.4,266.8c-68.7,51.3,5.5-4.9-23.6,4.5,3.6-5.1-12.3,30.6-18.6,1.8C529.3,255.8,576.3,258.6,573.4,266.8Z" fill="#700a5d"/><path d="M571.4,276.4c4.6-12.5,10-15.4,16.2-8.6C588.1,275.3,578.8,285.2,571.4,276.4Z" fill="#975174"/><path d="M552.6,281.4c-9.8-6.6-9.9-11.5-.3-14.5C562.6,267.9,560.1,278.6,552.6,281.4Z" fill="#6e005a"/><path d="M569.8,269.4c-11.2-8.3,29.4-59.5,45.8-45.6C624.7,233.9,567.6,270.9,569.8,269.4Z" fill="#7c3167"/><path d="M634.8,244.4c-17,13.2-20.5,6.3-39.9,7C604.8,239.8,623,234.5,634.8,244.4Z" fill="#782563"/><path d="M603.4,193.3c-9.2,17.8-45.2,50.4-57.6,27.4C543.1,210.4,603.6,189.9,603.4,193.3Z" fill="#74185f"/><path d="M602.7,194.6a81.5,81.5,0,0,1-39.8,3.2" fill="#7e2d65"/><path d="M612.3,226.1c-7.2,9-14.2,8.9-20.8-.2C587.9,217.5,629.7,210.5,612.3,226.1Z" fill="#8f4b72"/><path d="M569.8,218.3l20.6-7.5C592,219.9,571.1,226.9,569.8,218.3Z" fill="#9b607c"/><path d="M604.1,219.9c-7.6,2.4-15.8-5.6-14.5-5.9C586.5,214.5,615.2,199.2,604.1,219.9Z" fill="#70005b"/><path d="M577.6,139.9c-5.9-36.5,51.1-34.3,53.7-54.3a34.3,34.3,0,0,0-15.2,24.9" fill="#6d005a"/><path d="M578-37.8c2.9-2.6,34.9-14.5,38.2-13.9,8.9,1.6-2.3,55-5.7,60.1,4.9-1.9-39.7-2.6-37.1-1-2.8-34.2,16.5-6,30.1-23.9C595.1-23.7,586.6-30.9,578-37.8Z" fill="#700a5d"/><path d="M579.9-38.8l30.7,17.1c-3,3.6-39.9,32.6-44.8,30C557.9-11,562.7-26.8,579.9-38.8Z" fill="#70005b"/><path d="M559.7-16.1C568.2-19.2,568-2.2,571,5.5,565.1,14.4,559.9-16.3,559.7-16.1Z" fill="#75125e"/><path d="M617.9,58.4a41.4,41.4,0,0,1-24.8-6.3c7.8-12.2,18.7-16.2,32.7-12.2Z" fill="#70005b"/><path d="M620.9,32.3c-8,3.2-27.9,21-37.8,17C561.7,29.2,625,32.9,620.9,32.3Z" fill="#700a5d"/><path d="M609,31c-11.6,4.1-28.1,17.5-37.8,13.8C558.4,40,612.5,25,609,31Z" fill="#803568"/><path d="M-.2,208.7c5.4,3.2,15.6,11.6,7.1,18.1C-10.4,233.3-4.7,213.5-.2,208.7Z" fill="#7a1c60"/><path d="M32.1,247.6,5.4,240.7c2.4,1,22.4-35.7,37.5-5.1C41.9,242,38.3,245.9,32.1,247.6Z" fill="#7a1c60"/><path d="M32.1,247.6c12.2-16-13.8-17.6-22.3-23.8,4.6,4.1,81.7-37.7,73.4-10.2C83.3,213.4,38.9,243.2,32.1,247.6Z" fill="#7b115d"/><path d="M30.2,265c-8,3.7-16.7,3-7.5-6.6C23.2,258.3,44.6,257.6,30.2,265Z" fill="#975174"/><path d="M30.6,257.9c-16.5.5,4.6-6.9,7.8-7.7C47.7,254.4,29,261.3,30.6,257.9Z" fill="#8b426d"/><path d="M45.1,257.5q16.7,6.9,3.3,22.8C37.5,289.3,28.3,248.9,45.1,257.5Z" fill="#975174"/><path d="M45.1,257.5c-5.4,11.7-10.3,14.2-14.9,7.5C31.5,262,42.6,249,45.1,257.5Z" fill="#802a64"/><path d="M52.6,290.8c30.9,9.4,72.6-41.4,107.6-33.1,16.3,9-57.9,57.2-56.6,45.9,2.9-3.2,5.9-6.2,9-9.2C92.5,297.1,72.6,290.6,52.6,290.8Z" fill="#6e005a"/><path d="M44.7,256.2c-33.3-2,33.1-42.5,27.6-17.7C71.2,243.4,46.6,254.4,44.7,256.2Z" fill="#7a1c60"/><path d="M95.9,255.3c-12.2,1.8-18.2-3.1-18.2-14.9-1.3,2.8,20.8,2.5,23.4,2.4C108,248.6,106.3,252.7,95.9,255.3Z" fill="#843468"/><path d="M62.2,243.6c35.8-12-7.9-8.2-1.4-12.7,10.5-5.4,20.8-4.9,30.7,1.6A40.9,40.9,0,0,1,62.2,243.6Z" fill="#7e2d65"/><path d="M95.9,255.3c3.6-2.7,19.4-10.2,12.9,3.1C95.3,284,97.9,261.4,95.9,255.3Z" fill="#9b607c"/><path d="M48.9,277.9c2.6-2.7,12.5-28.8,21.8-9.6C66.7,277.5,59.5,280.7,48.9,277.9Z" fill="#8f4b72"/><path d="M80.8,247.7c-1.5,7.9-9.4,6.5-15.6,4.1C63.4,253.3,83.8,237.6,80.8,247.7Z" fill="#975174"/><path d="M62.2,243.6c-.4,6.5-5.5,10-15.2,10.4C45.3,245.3,50.4,241.9,62.2,243.6Z" fill="#975174"/><path d="M64.3,276.5c2.1-2.7,4.2-5.5,6.4-8.2C77.2,276.5,67.2,274.3,64.3,276.5Z" fill="#843468"/><path d="M72.3,254.6l6.9-3.6C78.1,254.4,76.1,256.1,72.3,254.6Z" fill="#8b426d"/><path d="M565.9,262.2c1.4,1.3-40.5,9.1-36.8-7.6C541.2,233.9,567.8,252.3,565.9,262.2Z" fill="#791f61"/><path d="M537.4,270.2c-4.1,5.3-26.3,11-26,.7C512.2,239.6,540.2,268.1,537.4,270.2Z" fill="#70005b"/><path d="M518.8,272.2c7.3,1.3,11.3,5.5,12,12.7Q488.7,292.7,518.8,272.2Z" fill="#74185f"/><path d="M595.8,217.6c16.4,11-21.7,45.5-21.5,37.6s3-14,9.4-17.5c-.7-6.7-39.7,11.5-33.5-2C555,230,588.6,215,595.8,217.6Z" fill="#700a5d"/><path d="M560.7,240.9c5.5-8.3,13.2-11.7,23-10.3C611.3,244.9,549.8,265.4,560.7,240.9Z" fill="#6d005a"/><path d="M566.9,195.9c18.1,13.9-83,63-24.6-1.4Z" fill="#75125e"/><path d="M530.9,232.9c10.4-6.3,10.1-9.2,21.4-13.3C577.2,228.3,513.8,257,530.9,232.9Z" fill="#70005b"/><path d="M570.6,217.4l18.8-1.3c-8.5,11.6-20,18-34.4,19.3Z" fill="#88426e"/><path d="M554.8,230.3c2.8,11,35.2-14.8,37-16.8C602.4,225.8,556.1,229.8,554.8,230.3Z" fill="#782563"/><path d="M553.9,212.4q9.8-13.8,25.8-10.5C576.4,210.7,561,217.1,553.9,212.4Z" fill="#843a6a"/><path d="M553.7,222.3l-2.2-1.8Z" fill="#75125e"/><path d="M567.1,198.1c-5.1-2.6-72.2,10.3-70.2,1.6,9.6-18.1,91.9-17.2,95.4-31.5C584.3,178.6,575.9,188.5,567.1,198.1Z" fill="#700a5d"/><path d="M582.9,189.7c-22.7,8.6,12.1-25.6,35.9-9.7C613.6,192.3,591.6,188.3,582.9,189.7Z" fill="#9a5878"/><path d="M574,185.8c2.5,17.4-9.6-2.8-10.6-5.9C570.3,177.7,580,173.3,574,185.8Z" fill="#75125e"/><path d="M583.7,189.2c4.6-5.6,6.7-.5,9.5,1.4Z" fill="#88426e"/><path d="M626.2,82.4c-23.4,20.4-35.1,28.1-45.3,57.5C570,138.2,560.1,94,558.7,86c1.2-1.6,39.2-8.5,41.8-7.8.7,7.9-2.6,13.7-10.1,17.4A105.3,105.3,0,0,1,626.2,82.4Z" fill="#70005b"/><path d="M568.2,170.2l-21.1,14.5c7.9,2.1,13.4-44.8,10.3-38.9,6.4-12,60.4,5.8,45.4,19.1A237,237,0,0,0,568.2,170.2Z" fill="#791f61"/><path d="M590.5,133.9c8.6,19.8-113.9,43.7-93.3,17.2C502.9,143.7,567.2,123.9,590.5,133.9Z" fill="#75125e"/><path d="M586.6,140.1c-12.1-16-31.9,15.8-40.7-3.1a69.8,69.8,0,0,1,27-8.8c-.7,3.3-3-17.7-3-17.7a40.8,40.8,0,0,0-27.6,4,48,48,0,0,0,11.1-28C571.8,80.7,585,129.5,586.6,140.1Z" fill="#843468"/><path d="M572.8,186.6c.3-6.7,12.4-23.3,21.6-20.2C598.3,177.7,581.2,183.2,572.8,186.6Z" fill="#843468"/><path d="M581.6,182.3c6.5-4.6,30.1-14.8,29.7.9Z" fill="#9b6680"/><path d="M603.1,100.8c6.5-2.3-12.6,35.5-19.5,13.3C588.5,112.9,599.4,103.9,603.1,100.8Z" fill="#700a5d"/><path d="M593,173.7l2.1-2.2Z" fill="#75125e"/><path d="M598.7,84.9c-16.1,4.3-3.3-19,22.5-12.7C616.4,79.7,608.9,83.9,598.7,84.9Z" fill="#8f4b72"/><path d="M596.2,48.5c22.5,2.8-23.9,27.9-31.2,28.2C557.6,70.5,593.7,47.9,596.2,48.5Z" fill="#74185f"/><path d="M597.4,76.4c-11.3-8.2-4.6-25.7,10.6-13.1C621.4,74.2,599.6,75.5,597.4,76.4Z" fill="#6c005a"/><path d="M567,73.3c-.8.2,24.2-9.9,15.2,1.4C559.1,96.9,560.9,71.9,567,73.3Z" fill="#6d005a"/><path d="M577.8,74.9c1.7-2.6,13.4-13.2,16.1-8.7C593.9,65.9,583.1,81.6,577.8,74.9Z" fill="#9b6680"/><path d="M571.1,50.1,569.3,45Z" fill="#803568"/><path d="M573.4,53.8c9.1-3.5,13.4-7.8,23.5-10.1C592.8,65,573.6,80.2,573.4,53.8Z" fill="#70005b"/><path d="M12.4,227.1c5.7-4.7,20.2-2.9,16.9,9.4A25.8,25.8,0,0,1,12.4,227.1Z" fill="#802a64"/><path d="M91,232.8l-23.7-5.3c1-7.1,45.6-6.7,49-6C115.6,221.4,103.3,251.2,91,232.8Z" fill="#70005b"/><path d="M92.3,225.1l-17.1-5.7c4.6-12.9,13.1-16.9,25.7-12.1A75,75,0,0,0,92.3,225.1Z" fill="#802a64"/><path d="M54.1,231c6,5.3,1.8,6.6-3.9,7.3C45.9,233.7,49.9,232.3,54.1,231Z" fill="#843468"/><path d="M28.1,218.9l6.6-1.3Z" fill="#843468"/><path d="M129.9,279.8c-9.9,2.3-18.4-.3-25.4-7.6,2-4.4,38.8-10.8,42-6.8A78.5,78.5,0,0,1,129.9,279.8Z" fill="#843468"/><path d="M159.6,258.1c-21.8,10.2,2.8-12.5,8.7-12.6C170.7,245.8,173.4,262.3,159.6,258.1Z" fill="#8b426d"/><path d="M150.6,259c5.3,9.5-34.5,13.4-29,12.1C122.7,263.3,145.3,255.5,150.6,259Z" fill="#74185f"/><path d="M163.1,261.2c12-6,5.5,8.6-2.8,11.7C143.4,273.1,159.7,261.1,163.1,261.2Z" fill="#975174"/><path d="M153,268.2c4.9,2.8,9.8,5.4,14.9,7.7C161.9,290.2,145.8,271.3,153,268.2Z" fill="#843468"/><path d="M129.9,279.8c-1.3-13,12.6-6.8,17.3-12.1Z" fill="#75125e"/><path d="M91,232.8c4.8.3,46,2,47.3,7.6-13.2,4.6-13.2,9.3.2,14.3C133.8,260.6,71.9,250,91,232.8Z" fill="#75125e"/><path d="M105.6,261c3.3-6.5,23.2-7.1,18.9,2.4Q110.7,273.2,105.6,261Z" fill="#975174"/><path d="M105.6,261c4.2,5.3,23.4-1.1,19.9,6.1C117.9,275,98.5,265,105.6,261Z" fill="#7e2d65"/><path d="M106.6,267.3c17.2,5.8-6.4,7.1-7.4,4.9C87.6,266.2,101.1,265.2,106.6,267.3Z" fill="#975174"/><path d="M253.2,116.5a57.9,57.9,0,0,1,31.2,7.7c-1.3,9.2-56.6,22.5-63.9,16.3A79.7,79.7,0,0,0,253.2,116.5Z" fill="#4a0b3a"/><path d="M388.6,101c-15.4,32.9-103.3-1.8-34.3-16.2C312.9,133.9,366.6,86.6,388.6,101Z" fill="#490039"/><path d="M483.8,96.9a78.7,78.7,0,0,1-15.9-18.1c2.8-3.1,45.2-6.7,45.3-1.3A98.3,98.3,0,0,1,483.8,96.9Z" fill="#843a6a"/><path d="M554.8,232.6c11.7,33-56.6,26.7-56.6,26.6C505.1,252,540.8,216.5,554.8,232.6Z" fill="#75125e"/><path d="M523.2,255.5c4.2-11.4,12-15.2,23.6-11.5C547.3,254.8,530.5,257.6,523.2,255.5Z" fill="#843a6a"/><path d="M520.7,273.7a88.8,88.8,0,0,1-48.5-1.5,23.2,23.2,0,0,0,3-15.9C498.8,232.2,530.9,280.3,520.7,273.7Z" fill="#791f61"/><path d="M499.4,293.2c-20.7,7.4-17.4-32.1,2.5-20.8C508.8,278.8,497.6,287.2,499.4,293.2Z" fill="#803568"/><path d="M498.3,291.8l2.9-19.3C505.9,270.1,515,285.9,498.3,291.8Z" fill="#8f4b72"/><path d="M568.7,250.5l-1-.9Z" fill="#700a5d"/><path d="M501.1,200.7a229.2,229.2,0,0,0,43.8-4.5C537.4,222.6,473,223.7,501.1,200.7Z" fill="#70005b"/><path d="M533.4,231.6c24.7-20.1-46.4,55-46.9,18.2C486.9,248.4,525.6,223.8,533.4,231.6Z" fill="#7e2d65"/><path d="M530,229.9l-18.8,9.9C504,240.3,526,215,530,229.9Z" fill="#975174"/><path d="M530.1,204.4c9.3-2.9,22,2.1,8.2,8.1C526.7,214.4,523.9,211.7,530.1,204.4Z" fill="#7e2d65"/><path d="M547.9,210.9l-19,16.1C514.9,218.5,543.2,207.2,547.9,210.9Z" fill="#7e2d65"/><path d="M527.4,219.5c16.5.2-14.4,12.3-9.1,11.1C511,227.3,521.9,216.3,527.4,219.5Z" fill="#843a6a"/><path d="M502.9,202.6c-19.1,32.6-71.4-8.7-41.5-14.4,2.6,4,1.4,6.9-3.5,8.7-21.7-5.9,8.7-30.9,26.9-24.7a21.1,21.1,0,0,1-13.2-12.4c-1.2,1.9,65.3-2.8,70.3-2.1,33,33.2-59.3,26.7-61.8,31.6A152.5,152.5,0,0,1,502.9,202.6Z" fill="#6d005a"/><path d="M525.6,185c15.3,1,11.6-6.8,21.2,3.9C474.2,209.8,522.7,184.5,525.6,185Z" fill="#791f61"/><path d="M544.8,189.9c-3.1.4-9.2-28.9,11.1-21.2C547.6,182.8,568.5,189.8,544.8,189.9Z" fill="#803568"/><path d="M569.4,169.1l11.7-4.3C578.7,170.3,575.5,173.5,569.4,169.1Z" fill="#791f61"/><path d="M626.3,75.5c-8.3,16-21.5,24.9-39.8,26.6a146.7,146.7,0,0,1,32.6-30.8Q611,87.7,626.3,75.5Z" fill="#72195f"/><path d="M542.8,87.6c-4.6-25.4,27.5,9.9,30.3,17.5C561.1,88.2,543.4,101,542.8,87.6Z" fill="#8b426d"/><path d="M562.3,88.8c1.9-10,28.5-8.8,37-4C583.8,90.9,570.2,85.6,562.3,88.8Z" fill="#7c3167"/><path d="M603,101.6l-17,10.8C589.1,105.1,594.3,100.8,603,101.6Z" fill="#975174"/><path d="M599.3,87.3l-8.4,7.4Z" fill="#9b6b83"/><path d="M576.6,95l5.9-4.9Z" fill="#9b607c"/><path d="M587.4,111.3l-.6,1.4Z" fill="#975174"/><path d="M557.2,145.7c18.7-7.7,4.7,15.3,12.6,13-6.3,1.7-12.6,3.1-19,4.2Z" fill="#975174"/><path d="M546.2,112.9a46.4,46.4,0,0,1,30.4-4.1c.6,2.3-15,27.9,6.8,18.2a213.6,213.6,0,0,1-84.8,14.2c1,2,44.8-43.9,45.7-44.3C556.1,101.8,556.7,107.1,546.2,112.9Z" fill="#70005b"/><path d="M527.9,138c12.9-4.9-42.2,20.8-62.6,25.1-26.8,5.6,43.7-37.9,33.6-31.7,7.9-4.9,26.8,28.8-8.1,14.6C504.7,151.1,517.1,148.5,527.9,138Z" fill="#791f61"/><path d="M551.4,161.4A29.2,29.2,0,0,1,536.2,180q-4.5-27.5,21.9-35.7Z" fill="#7e2d65"/><path d="M528.4,170.1c-1.7,5.5-27.5,15.8-26.1,4.3C513.4,155.9,518.8,173,528.4,170.1Z" fill="#72195f"/><path d="M521.3,159.1l10.3-19.7Q547.2,155.5,521.3,159.1Z" fill="#803568"/><path d="M527.1,170.9a36.2,36.2,0,0,0-24.6,3.9C494.3,153,522.5,166.2,527.1,170.9Z" fill="#803568"/><path d="M515.8,161.4l-1.1.2Z" fill="#935275"/><path d="M556.6,106.1c1,1.1-23.9-4.6-10.1-9.4C554.9,93.3,564,95,556.6,106.1Z" fill="#791f61"/><path d="M572.2,110.7c-5.7-1.8-12.7,8.1-17.7-.5C560.9,105.8,567.7,98.1,572.2,110.7Z" fill="#74185f"/><path d="M566,10.2c-1,1.4-2.1,2.7-3.2,4.1C563.9,12.9,565,11.6,566,10.2Z" fill="#803568"/><path d="M580.6,61.1l13.3-10.3C592.4,57.6,587.6,60.6,580.6,61.1Z" fill="#843a6a"/><path d="M584.3,73.5c-2.3,5.9,3.6,11-18.7,9.9C570.4,77.1,576.3,73.4,584.3,73.5Z" fill="#8f4b72"/><path d="M576.3,75.2l-7.1,4.4Z" fill="#9b6680"/><path d="M515.2,75c13.3,2.2-32.2,48.7-35.5,27.7C482,94.1,490.7,72.2,515.2,75Z" fill="#713158"/><path d="M549.4,96.4c-4,7.4-18.2,23.8-27.6,20.4C524.4,108.1,544,72.2,549.4,96.4Z" fill="#7b115d"/><path d="M542.7,90.5l-6.3,5Z" fill="#802a64"/><path d="M114.7,238.4c-9.9-25.8,10.4,1.6-16.2-14.2C89.2,187.9,187.2,252.8,114.7,238.4Z" fill="#791f61"/><path d="M111.2,232.6c-.6.2-14.7,9-15.7,6.7C90.3,227.9,109.1,227,111.2,232.6Z" fill="#843468"/><path d="M165.4,276.8c3.1-1.8,46.4-13.4,48.1-6.2-1.5,11-39.7,18.2-7.7,16.3-2.3,11.5-43.9,18.1-42.3,8.5,5-3.3,10.1-6.5,15.3-9.5C174.3,279.5,145.6,302.6,165.4,276.8Z" fill="#70005b"/><path d="M191.1,288.7c3.2,1,19.8-27.4,31.4-20q-3.9,35.3-40.2,31.8C197.6,279.1,210.7,294.5,191.1,288.7Z" fill="#6d005a"/><path d="M150.6,259c-23.9,9.4,37-51.7,28.4-17.5C174.1,247.6,156.8,254.8,150.6,259Z" fill="#75125e"/><path d="M123.9,263c-8.1-13.1,11.5-10,18.3-5.7C144.2,267.1,123.7,263.1,123.9,263Z" fill="#7e2d65"/><path d="M167.6,264.8c8.7-2.5,41-15.9,49-5.8C218.2,271.2,165.7,282.1,167.6,264.8Z" fill="#843a6a"/><path d="M145.6,256.1c-22.8,8.7,1-19.1,5.3-18.8C159.1,243.2,157.4,249.5,145.6,256.1Z" fill="#975174"/><path d="M114.7,238.4l18.2-9.3C133.4,240.5,127.3,243.6,114.7,238.4Z" fill="#8f4b72"/><path d="M119.9,256c3.9,13.3-15.3-5.1-12.6-5C115.9,244.8,115.6,249.3,119.9,256Z" fill="#8b426d"/><path d="M145.5,240.9c-1.2,9.5-1.6,6.5-10.1,15.5C130.9,253.2,142.3,230.4,145.5,240.9Z" fill="#7e2d65"/><path d="M126.5,248.9l9.7-3.6C134.1,249.4,130.9,250.7,126.5,248.9Z" fill="#7e2d65"/><path d="M464.3,130.8c-9.3,17.5-70.9,24.7-70.4,8.3C397.3,136.4,465.7,127.4,464.3,130.8Z" fill="#8b426d"/><path d="M284.4,124.2l-28.8-8.6c1.8-28.2,39-1.9,48.1.9C295.4,114.4,288.9,117,284.4,124.2Z" fill="#4c103b"/><path d="M465.2,131.4c-11.7-17.4,58.9-40.2,64.1-28.5C534.5,121.5,472.1,134,465.2,131.4Z" fill="#75125e"/><path d="M325,146.6a100.8,100.8,0,0,0-28.4,11.2c-24-21.9,44-20,53.9-14.8A105.3,105.3,0,0,0,325,146.6Z" fill="#843468"/><path d="M435.8,129.6c1.3,11.9-52.5,13.9-47,4.5,7.2-12.6,65.9-17.3,64-12.7C447.7,134.5,438.2,109.3,435.8,129.6Z" fill="#791f61"/><path d="M350.5,143c-11.4-1,47.6-29.2,56.3-33.1C410.7,108.1,354.2,140.3,350.5,143Z" fill="#692954"/><path d="M470.2,128.9q36.9-29.7,40.2-2C493.1,133.2,482.4,140.7,470.2,128.9Z" fill="#8b426d"/><path d="M440.1,120.4c8.7-3.9,16.1-2.2,22.1,5.1C431.1,131.6,426.4,120.2,440.1,120.4Z" fill="#75125e"/><path d="M509.9,105.1c.1,0-33.4,5-30.8-2.9C483.9,100.5,509.8,94.9,509.9,105.1Z" fill="#843468"/><path d="M479.1,102.2c8.3,9.9-16,6.8-22.2,1.7Z" fill="#88426e"/><path d="M403.6,119.6c3.6-2.8,18.4-10.3,23-2.7C423.9,117.9,400.8,128.6,403.6,119.6Z" fill="#8f4b72"/><path d="M455.9,140.1c4.4-3.1,14.8-9.4,14.7.5C465.1,146.5,460.2,146.3,455.9,140.1Z" fill="#70005b"/><path d="M270.1,96.8c1.2-8,3.5-5.6,6.7,7.2C270.5,111.6,269.7,102.9,270.1,96.8Z" fill="#4a0037"/><path d="M466.5,111.9c2.1-6.5,8.3-2.1,11.9-4.5C475.7,112.2,471.7,113.7,466.5,111.9Z" fill="#843a6a"/><path d="M283.6,122.1l1.5-3Z" fill="#632151"/><path d="M142.7,238.7c1.3-16.9-6.8-1.7-3.9-18.8-1.8,0-26.3-2.3-23.5-5.8a399.8,399.8,0,0,1,59.2-13.6c6.3,3.4-27.1,19.7-26.5,20.9-.7-3.4,114.9-10.7,115.9,15a40.8,40.8,0,0,1-27.5,12c5.5-31.2-12.4,15.7-27.5-6.2,1.9-7.6,6.8-12,14.7-13,5.1,5.1-55.1,3-26.5-5.1C198.4,225.9,150.6,244.9,142.7,238.7Z" fill="#75125e"/><path d="M499.2,257.8c5.6-1.9,15.2-.1,20.9,1.3Q482.5,276.5,499.2,257.8Z" fill="#843a6a"/><path d="M492.5,272.7c-.4,1.7-41.6,37.3-43.4,18.8C450.6,285.3,486.7,255.8,492.5,272.7Z" fill="#75125e"/><path d="M501.3,258.5c-3.5,4.9-34,3-34.6-6.1C467.8,237.1,497.4,255.2,501.3,258.5Z" fill="#75125e"/><path d="M482.5,262c-5.2,11.7-14.8,15.5-28.9,11.6C444.7,259.1,483.7,262.6,482.5,262Z" fill="#88426e"/><path d="M454.7,271.9c11.7-7.3,18.9-7.3,21.7-.1Q456.9,293.1,454.7,271.9Z" fill="#7e2d65"/><path d="M482,262.7c-10.8,6.3-16.9,5.7-18.1-1.9C473.1,248.2,478.7,257.3,482,262.7Z" fill="#7e2d65"/><path d="M522.5,222c4.3,20.9-30.4,8.2-31.9,8.6S533.5,199.7,522.5,222Z" fill="#7e2d65"/><path d="M503.4,218.4c-8,3.5-17.9,12.1-25.1-1.5C476.6,201.1,500.7,215.9,503.4,218.4Z" fill="#74185f"/><path d="M518.9,217.4c-19,.2,8.3-12.5,12.4-13.2C529.8,210.5,525.7,214.9,518.9,217.4Z" fill="#8b426d"/><path d="M494.6,232.7l19,.5a70.9,70.9,0,0,1-39.9,17.9C471.2,234.9,478.2,228.8,494.6,232.7Z" fill="#70005b"/><path d="M518.3,217c5.2-8.2,11.8-10.2,19.9-6C536.6,220.3,521.9,226.2,518.3,217Z" fill="#700a5d"/><path d="M471.2,205.4c31,14.4-16.5,18.2-19,5.8C453.7,202.3,460.1,200.4,471.2,205.4Z" fill="#74185f"/><path d="M485.3,170.2c27.2,27.2-39.8-17-29.2,6.4C453.7,164,479,167.3,485.3,170.2Z" fill="#700a5d"/><path d="M459.7,176.3c5.9,16.1-30.7,14.6-28.5,8.5C438.5,177.6,445.7,165.7,459.7,176.3Z" fill="#70005b"/><path d="M456.7,206.3c-1,3.9-14.2,18.6-18.4,8.7C430.7,189.8,468.5,201,456.7,206.3Z" fill="#7b115d"/><path d="M455.1,198.6c-12.2,4.2,9.1-17.4,22.1-1.4Z" fill="#700a5d"/><path d="M504,191.5c-4.3,9.4-22.7,5.8-25.3-3.8C487.5,181.5,498.6,189.4,504,191.5Z" fill="#700a5d"/><path d="M504.1,169.2c-3.2,3.3-14.6,3.1-11.4-5.5C508,160.2,511.8,162.1,504.1,169.2Z" fill="#72195f"/><path d="M484.1,169.9c-10.1,6.2-18.6,6.6-25.7,1.3C451,158,478.8,165.7,484.1,169.9Z" fill="#803568"/><path d="M501.9,191.9c4-7.5,18.2-14.1,24.9-6.7C519.1,191.1,510.8,193.3,501.9,191.9Z" fill="#9c6f85"/><path d="M506.7,165.7c-3.5-10.1-15.6,2.2-12.8-4.9C506.5,147.7,517.6,170.4,506.7,165.7Z" fill="#935275"/><path d="M491.6,186.2l-12.3,1.9C482.8,181.9,487.2,184.3,491.6,186.2Z" fill="#9c6f85"/><path d="M484.3,170.5l-1.4-.6Z" fill="#803568"/><path d="M472.9,193.1l-1.8-.7Z" fill="#7c3167"/><path d="M583.7,86.1l7.5-2.8Z" fill="#9b6680"/><path d="M509.8,142.5c-25.8-13.4,18.9,1.9,14.5-3.9C523.6,141.2,515.5,160.6,509.8,142.5Z" fill="#6e005a"/><path d="M504.3,138.4c-20.3,21,12.3-39.8,22.5-12.7C519.7,126.2,506,130.2,504.3,138.4Z" fill="#75125e"/><path d="M523.7,114.4l3.8,1.5Z" fill="#802a64"/><path d="M462.9,163c-1.5,10.1-21.5-2-17.7-9.8C452.2,141.6,461.7,161.1,462.9,163Z" fill="#70005b"/><path d="M519.6,120.3c1.8,5-30.8,22.9-26.3,19.8C491.1,127.7,509.6,118.7,519.6,120.3Z" fill="#7e2d65"/><path d="M485.9,134.9l4.8-1.7Z" fill="#7e2d65"/><path d="M472.6,142.2l-2.1-1.6Z" fill="#70005b"/><path d="M205,267.7c4.3-3,13.1-21.9,19.3-21.3C235.8,248.7,229.5,277.6,205,267.7Z" fill="#75125e"/><path d="M181,275.5l22.8-7.7C198.9,278.4,188.3,272.1,181,275.5Z" fill="#75125e"/><path d="M245.3,270.9c.2,4.4-25.4,15.7-24.9,9.3C221.6,277.9,242,264.7,245.3,270.9Z" fill="#8b426d"/><path d="M178.9,233.9c5.5.4,20.7,7.5,19.8,12.8C189.5,274.8,161.5,228.1,178.9,233.9Z" fill="#791f61"/><path d="M173,236.3c1.6,3.7-18.2,5.7-22.3,2.4C160.4,230.7,167.8,229.9,173,236.3Z" fill="#802a64"/><path d="M179,255.8c-18.3-3.7,18.5-6.7,13.7-6.6C193.4,249.7,188.6,266.9,179,255.8Z" fill="#8b426d"/><path d="M190,252.8c1.7-.7,18.7-11.3,22.4-7.5C225.4,259,185.3,261.7,190,252.8Z" fill="#782563"/><path d="M143.7,247.6l1-.9Z" fill="#75125e"/><path d="M391.1,136.4c16.9,45.1-82.6,20.1-81.8,40.8,11.6-21.9,23.1,23.2,11.5-25C352,165.6,376.9,129.4,391.1,136.4Z" fill="#75125e"/><path d="M391.1,136.4c-14.8,16.4-26.3,17.9-34.7,4.5A140.3,140.3,0,0,1,419,121.2,114.5,114.5,0,0,0,391.1,136.4Z" fill="#7e2d65"/><path d="M333.6,151.8l-5.7,3.4Z" fill="#8b426d"/><path d="M454.4,148c-4.8,8.7-59.7,17.6-61,15.5C383.1,138,453.9,148,454.4,148Z" fill="#791f61"/><path d="M410.5,148.6c1.9,4.7-29.7,6-23.9,7.8C376.1,142.7,407.2,134.9,410.5,148.6Z" fill="#843468"/><path d="M410.5,148.6c-21.6-6.5,16.6-7.8,16.8-5.2Z" fill="#7e2d65"/><path d="M440.1,120.4l-9.7,2.5C432.4,116.7,435.8,116.6,440.1,120.4Z" fill="#7e2d65"/><path d="M175,212.4c5.9,1.5,11.8,3.2,17.5,5.1-9.8-.5-43.9-1.4-48.4,1C143.2,219,179.1,202.4,175,212.4Z" fill="#6e005a"/><path d="M226.8,250.8c-15.5-21.4,29.7-8.7,26.6-.2C244.8,261.7,235.1,259,226.8,250.8Z" fill="#7e2d65"/><path d="M230.9,221.8c-3.3,2.9,21.9-23.8,24.5-12C257.3,218.4,236.3,221.4,230.9,221.8Z" fill="#8b426d"/><path d="M217.3,232.9c.2-.2-26.4,8.6-12.2-.3C205.7,232.9,243.5,222.8,217.3,232.9Z" fill="#70005b"/><path d="M173.7,209.3c-6.9-6,13.3-16.9,15-6.9C184.9,206.4,179.8,211.8,173.7,209.3Z" fill="#6d005a"/><path d="M245,238.2,227.6,246C229.8,240.8,237.8,231.4,245,238.2Z" fill="#9b6b83"/><path d="M205.1,232.6c-.7,3.2.8,16.9-6.9,13.4C195.8,243.3,194.2,221.3,205.1,232.6Z" fill="#802a64"/><path d="M257.6,239.5c4.4-1.5,12.6-17.2,12.5-3C256.7,267.7,259.4,237.7,257.6,239.5Z" fill="#9a5878"/><path d="M198.2,246c2.7-.7,12.5-17.5,11.3-4.3C209.4,250.8,181.2,255.9,198.2,246Z" fill="#975174"/><path d="M244.8,227.3c-4.3-11.9,17.7-10.2,19.2-2.3C259.6,231.8,253.2,232.6,244.8,227.3Z" fill="#7e2d65"/><path d="M205.2,247c7-8.6,6.8-4,15.8,2C205.8,266.2,216.8,245.1,205.2,247Z" fill="#8b426d"/><path d="M244.8,227.3c8.4-3.4,13.6-1.9,15.5,4.4C254.4,233.9,249.2,232.5,244.8,227.3Z" fill="#8b426d"/><path d="M217.3,232.9l9.4-3.4Z" fill="#9b607c"/><path d="M220,221.3l8.8-.3C225.9,222.1,222.8,225.2,220,221.3Z" fill="#975174"/><path d="M241.2,224.5l1.3.2Z" fill="#7e2d65"/><path d="M223.5,173.6c1.8-16.6,47.1,6.5,18.7,17.3C230.9,191,224.7,185.2,223.5,173.6Z" fill="#843468"/><path d="M225.1,188.7c3.3-7.2,8.2-8.6,14.7-4.1C244.3,191,219.6,208,225.1,188.7Z" fill="#7b115d"/><path d="M221.6,210.9l7.1-1.7Z" fill="#8b426d"/><path d="M169-31.4c-1,29,106.9-20.6,27.7,55.7-10,9.7-37.1,29-44.8,31.5-79.5,26.1-.4.6-28.7-12.9-8.4-4-149.2,55.2-96.8-5.6C55.2,4,187.1,38.5,178.1-51.8c3.1,31-69.5,8.6-70.4,8.3-3.6-.9-29.7,3.6-33.9,1.5" fill="#2a001c"/><path d="M96.1-32C84.9-20,80.3-5.7,102.4,4.2s8.1-41.8,25.5-26.8C143.2-9.4,97.2,30.9,83,31,60.9,31,35.1-27.5,34.8-38" fill="#460037"/><path d="M40.6-28.8A67.9,67.9,0,0,0,12.1-41.1c-14.7,21.8,38.8,15,42.4,13.9,27.9,54.2-35.2,38-56,12.8" fill="#450037"/><path d="M-16.8-24.5C-6.9-12.2,29.6,5.7,45,9" fill="#460037"/><path d="M155.5,41.9C139,32.6,229.8,1.2,229.8,1.2c16.6-33.9-46.7-41.7-51-30.9l13.9-25.9" fill="#2c001e"/><path d="M-16.7-12.5c.1-.8,50.2,45.6,50.4,45.7-8.7-4.4,50.7-12.6,47-8.6,1.4-13.5,27.9-23.7,45-4.7-16-6.5-61.8,21.4-80.1,20.9-39.1-1-13-14.4-36.3-28.9C-6.8,1.8-11,36.8-24.5,5.1-26.1,1.2-21.4-24.1-16.7-12.5Z" fill="#480038"/><path d="M83.4,54a62.3,62.3,0,0,1,46.9-10c-29.2,22.1-18.6,39.6-52.8,51.8-9.8,3.5-46-33.1-36.2-39.4,12.5,14.3,24.7,14.5,36.6.9a62.4,62.4,0,0,1,5.9,27.3C89.1,88.7,91.4,59.4,83.4,54Z" fill="#370028"/><path d="M128-13.6c-6-15.6,35.2-55.7,52.4-41-8.1-6.9-12.7,45.1-20.4,9.4C115.3-31,166.7-21.5,168.2-20c10.9,10.8-43.5-4.2-30.7,21.1A32.1,32.1,0,0,1,128-13.6Z" fill="#480038"/><path d="M41.3,56.4C41.5,120.2-49.1-16.9,11,9.8,25.8,16.4,14.9,45.2,41.3,56.4Z" fill="#360028"/><path d="M92.6,103.9c-3.7,3.5,50.6-55.5,40.6-36.7C127,78.7,91.1,107.3,92.6,103.9Z" fill="#340025"/><path d="M80.1,58.9c24.8,18.8,1.1,31.8-1.7,23.4C80.4,85.4,94.7,59.5,80.1,58.9Z" fill="#39002a"/><path d="M196.2,3.5c.8-10.8,5.5-14.5,14.1-11C209.9,6.7,205.2,10.4,196.2,3.5Z" fill="#480039"/><path d="M134.3-.2c14.9,5.9-3.8,17.9-8.6,20.1C119,12.8,121.8,6.1,134.3-.2Z" fill="#460037"/><path d="M71.9,55.8c.2-2.1.3-4.1.5-6.2C76.6,51.7,76.5,53.7,71.9,55.8Z" fill="#4b003b"/><path d="M63,53.1l4.3,4.4C63.9,57.7,61.9,56.7,63,53.1Z" fill="#4b003b"/><path d="M116.6-19c18.6,53.3-30.2,10.1-38.7,2C96.5-32.5,99.2-33.4,116.6-19Z" fill="#450037"/><path d="M32.8,23.2C41.1,6.7,35.4,7.4,62,14.7,44.7,38.5,38.4,27,32.8,23.2Z" fill="#460037"/><path d="M74.5,12.6C87.7,21.3,88,26.3,75.6,27.7,67.6,26.3,69.5,14.5,74.5,12.6Z" fill="#4e003c"/><path d="M-4.4,196.4c-3.6-5-1.4,73.1,4.7,64.1" fill="#68014e"/><path d="M277.5-52.1c4.6-.8,19.3,14.8,11.8,20.1a110.8,110.8,0,0,0-23.1-8c-2.9,4.9,24.6,1,16.5,16.8S258-38.3,250.2-28.8c14-17.2,13,55.5-2.7,62.3-2.1,1-1.8-70.7-5.7-76.6" fill="#310022"/><path d="M159.4,55.9c5.7-5.3,83.4-44.5,82-19.7,7.3-23-89.4,33.6-70.5,34.6Z" fill="#310022"/><path d="M-20.3,28.5c-1.4-19.2,54.6-8.4,9.2,17.2C-11.6,45.4-19.1,30.7-20.3,28.5Z" fill="#501240"/><path d="M43.6,70.2C66.1,81.6,2.9,92.3,9.3,88.9,22.6,81.9,12.3,64.4,43.6,70.2Z" fill="#3f042e"/><path d="M22.9,89.9c-4-11.7,24.5-18.1,29.5-14.6C55.5,93.3,30.4,90.9,22.9,89.9Z" fill="#3c002b"/><path d="M92.6,103.9c3.5,8.7-5,21.5-14.5,9.1S87.9,101.6,92.6,103.9Z" fill="#370027"/><path d="M80.7,68.3c9.1-5.7,16.4,8.6,7.6,12.2C79.4,79.1,76.8,75.1,80.7,68.3Z" fill="#3c002b"/><path d="M54.7,81.7c7.4-5.3,11.6-3.6,12.7,5C62,101.2,29.7,83.9,54.7,81.7Z" fill="#370027"/><path d="M54.7,81.7c2.7-2.9-16.5,21.3-18.8,10.7C45.8,71.9,52,68.3,54.7,81.7Z" fill="#390029"/><path d="M-22.5,62.1C-31.4,39,6.6,59.4,15.7,63.5,15.9,68.1-24.6,78.5-22.5,62.1Z" fill="#4e033d"/><path d="M-5.1,69q11.9-2.9,23.4-6.3C39.7,87.8-1.6,71.3-5.1,69Z" fill="#3c002b"/><path d="M15.7,68.4c1.5-7.8,6.7-9.4,15.5-4.6C35.2,70.1,30,71.7,15.7,68.4Z" fill="#653e52"/><path d="M119.7,79.2c-.6,3.7-.9,41.2-15.3,32.1C102.6,99,107.6,88.2,119.7,79.2Z" fill="#370027"/><path d="M94.6,109.2c23.3,3.6,26.9-32.5,50.3-34.6-.5-4.7-15.3,53.1-12.1,50.3S86.4,130,91,131.8Z" fill="#39002a"/><path d="M160.6,59c8.7-.8,15.6,2.2,20.8,9.2C179.3,96.4,141.5,66.6,160.6,59Z" fill="#39002a"/><path d="M159,73.2c2.1,4,2.9,36.8-14.5,11.2C141.7,73.5,146.6,69.8,159,73.2Z" fill="#4a1b33"/><path d="M32,24.7l.8-1.6Z" fill="#480038"/><path d="M3.4,189.1c9.7-25.2,16.9,32.9-11.1,27.4C-10.7,207,5,191.7,3.4,189.1Z" fill="#561641"/><path d="M247.8,37.3c-.9-16.8,14.5-35.6,18.4-47.9,1.9-6.1-18.7-8.5-19.3-17.9.5,8.1,31.7,7.1,38-15.7,1.3-4.6-3.3,12.1-1.7,14.4,7.7,11.5-1.6-36.3-10.7-20.5,20.9-36.3,77.7,84.4,65.8,70.5C320.6-.6,227.2,27.1,247.8,37.3Z" fill="#330024"/><path d="M343.4,8.8c-11.6-23.6-55.6-37.2-50.2-69.6C307.8-76.2,359,7.3,357.6,14.4c-4.1,21.4-51.7,31.8-81.3,4C273.4,1,359.7,24.5,343.4,8.8Z" fill="#390228"/><path d="M276.9,18c27.7-13.7,40.4,16.1,65.7,17.8C331.9,68,323.3,62,304.3,73c-1,.5-20.5-26-30.1-22.4.8-.3-43.2,58.8-49.2,52-8.5-9.6,33.8-40.4,24.4-47.2-15.2-11-40.2,34.8-40.3,34.8-36.2.6,6.2-48.4,14.9-53.4,12.7-7.4,87.5,14.1,91.8-.4C318.2,28,260.3,16.3,276.9,18Z" fill="#3d0c29"/><path d="M216.8,36.9c-4.9,7-11.6,8.5-20,4.4,3,12,5.8,24.1,8.3,36.2C179.9,97.1,180.1-7.4,216.8,36.9Z" fill="#370025"/><path d="M216.8,36.9c-20.9-11.4-25.6,6.4-26,22.8C137.5,59.2,237.4,27.1,216.8,36.9Z" fill="#330023"/><path d="M185.4,64.3c-1.4,0,24.8,16.3,20.6,19C196,93.4,170.6,78.9,185.4,64.3Z" fill="#330023"/><path d="M15.7,68.4c8.6-6.3,14.6-6.5,17.8-.7C30.1,78.7,16.9,78.2,15.7,68.4Z" fill="#4c2035"/><path d="M22.9,89.9c6.3-7,10.2-6.1,11.8,2.8C10.5,131.3,24.6,86.8,22.9,89.9Z" fill="#390029"/><path d="M18.2,99c5.6-6.1,14.5-7.2,22.1-5.8C46,100.5,9,106.1,18.2,99Z" fill="#370027"/><path d="M67.3,97.7c15.3,2.1,14.1,25.4-.3,36.4C67.5,133.8,22.3,92.6,67.3,97.7Z" fill="#3a0028"/><path d="M69.9,129.3c4.9-9.5,9.7-9.7,19.2-13.2C92.7,133.5,84.4,143.8,69.9,129.3Z" fill="#390029"/><path d="M48.9,98.4c-6.3,22-14-.6-13.8-.9a36.2,36.2,0,0,1,25.5-8.3C61.3,97.5,57.4,100.5,48.9,98.4Z" fill="#3a0026"/><path d="M177.9,73.2l18.9,11c-10.4,17.8-29.4-16.9-31.3,14,.5-2,25.4-13.2,26.9-.5-3.4,11.3-10.3,31.4-12,35.7-13.1,10-71-8.3-69.3-15.9a81.6,81.6,0,0,0,21.3,4.4C91,73,167,96.1,177.9,73.2Z" fill="#3c002b"/><path d="M84.4,136c27.7-14.6,8.9-14.7,30.9,15.1C110.5,186.4,45,130.2,84.4,136Z" fill="#3b002c"/><path d="M102.4,126.8c-1.8-4.3,7.4-10.7,11.2-6.6C114.1,129.4,110.3,131.6,102.4,126.8Z" fill="#461632"/><path d="M160.8,81.9c2.1,7.9-3,11.1-15.1,9.4C141.6,81.6,146.7,78.5,160.8,81.9Z" fill="#3d002d"/><path d="M438.9-15.8c26.3-1.3,35.8,20.1,63.7,27.6,15,30-79.4,30.2-74,40.3C428.6,59.8,445.4-29,438.9-15.8Z" fill="#521442"/><path d="M494.8-40.1c13.4,11.7-40.7,49.3,20.5,31.5C521.1,34.2,389-25.4,494.8-40.1Z" fill="#7c4363"/><path d="M587.1-55.7c4.9,11.8-43.3,68.4-69.9,57.3C507.6-8.3,573.5-62.5,587.1-55.7Z" fill="#6a2155"/><path d="M5.8,152c34.4-20.4,25.1,30.9,29.1,30-20-25.7-47.7,5.4-57-3.8A187.1,187.1,0,0,1,5.8,152Z" fill="#370028"/><path d="M4.8,181.6c7.5-24.3,24.6-9,29,.3C32.7,185,7.7,189.4,4.8,181.6Z" fill="#39002a"/><path d="M-11.8,180.6c-8-5.1,6.5-15,13.3-12.6C.8,169.2-5.8,183.4-11.8,180.6Z" fill="#330025"/><path d="M2.3,189.7l-1.8,2Z" fill="#561641"/><path d="M15.2,187.4c49.5-11.7-.3,16.7,0,16.8A21.8,21.8,0,0,0,15.2,187.4Z" fill="#4f003b"/><path d="M16.9,196.2c-1,7.6,2.7,15.4-8.1,18.7Q-13.2,205.9,16.9,196.2Z" fill="#68014e"/><path d="M343.4,8.8c12.7,11.9,10.7,15.1-6.3,15.7A16.9,16.9,0,0,0,343.4,8.8Z" fill="#350025"/><path d="M334.8,25.4c-2.4,3.1-4.7,2.9-6.7.1Z" fill="#350025"/><path d="M345.8,33.4c2.5-13.3,51.1-14.1,46.7,2.7,1.3-2.2-72.4,57.4-65.4,57.7C316.4,93.3,354.4,49.6,345.8,33.4Z" fill="#3d0c29"/><path d="M345.8,33.4c47.1-1.3-10.3,12.1,6.4,24.2,1.8-1.3-35.1-12.4-34.7-10C324.2,37.4,333.6,32.6,345.8,33.4Z" fill="#3f132b"/><path d="M365.5,13.9l-29.6-18c4.1-8.4,46,3.4,49.1,9.2Z" fill="#3d0c29"/><path d="M365.5,13.9A23.7,23.7,0,0,1,387,6.7a32.9,32.9,0,0,0-1.1,18.9C373.6,30.9,366.7,27,365.5,13.9Z" fill="#3f132b"/><path d="M350.6,57c13.1,5-30.9,24-39.9,17.9-11.1-7.4,23.1-37.7,33.4-34.1C362.7,47.3,325,46.4,350.6,57Z" fill="#43172c"/><path d="M209.4,89.2c2.8-5.1,52-57.8,43-22.9C251.4,70.2,208.4,93.3,209.4,89.2Z" fill="#3c1029"/><path d="M269,33c-4.5-38.3,57.4,3.2,49.2,6.7C307.1,44.5,276.3,44.5,269,33Z" fill="#3f132b"/><path d="M260.9,68.7c-18.1-37.7,40.2-1.3,46.5,2C304.8,79.6,268.1,72.3,260.9,68.7Z" fill="#390228"/><path d="M260.9,68.7A48.8,48.8,0,0,1,296,72.6c-5.9,14.9-83.6,41.9-89.5,21.2C207.9,99.9,256,73.5,260.9,68.7Z" fill="#370026"/><path d="M208.2,89.7c0,30-32.1.2-27.6-5.4C191.4,84.3,204.6,79.3,208.2,89.7Z" fill="#2f0020"/><path d="M302.7,72.5c1.4-.5,37.4,12.6,37.8,13C350.3,106,302.4,72.2,302.7,72.5Z" fill="#370026"/><path d="M385.9,7.5a74.2,74.2,0,0,0-35.5-8.6c.8-2.5,15.8-26.8,18.1-22.4A122.9,122.9,0,0,0,335.3-45c23.1-15.6,64.1,28.1,82.4,37A42,42,0,0,1,385.9,7.5Z" fill="#43172c"/><path d="M18.6,103.7c-5.3-15.1,33.2-4.4,23.9,9.5C38.5,119,15,110.5,18.6,103.7Z" fill="#340025"/><path d="M58.8,128.6a21.3,21.3,0,0,1,16.9,8.3c-2.8,7.5-43.3,20.1-42.5,9.1A79.6,79.6,0,0,1,58.8,128.6Z" fill="#390029"/><path d="M58.8,128.6c-13.9,22.4-17.4-14.4-5-24.8C60.1,111.1,61.8,119.4,58.8,128.6Z" fill="#3d002a"/><path d="M48.5,108.2c7.6,15.3,6.1,25.6-4.6,30.8C27.2,129,38.2,99.3,48.5,108.2Z" fill="#370027"/><path d="M48.9,98.4c2.6-5.6,5.2-4.1,7.8-.5C54.1,101.9,51.5,102.8,48.9,98.4Z" fill="#3d002a"/><path d="M72.2,132.1c5.1,14.2-4.1,66.5-14.3,51.4S77.2,146.7,72.2,132.1Z" fill="#39002a"/><path d="M97.5,156.5c4.1-9.4,83.1-39.8,87.6-20.1a39.4,39.4,0,0,1-14.2,22.2,37.5,37.5,0,0,0,27.8,7.5c4.9,15.7-61.7,37.4-69.3,21.9l19.8-26.1C147.7,160.2,83.4,204.2,97.5,156.5Z" fill="#39002a"/><path d="M183.2,134.2l-17.3-19.6c15.9,3.1,72.4-16.8,82.9,9.8C255.9,142.6,189.5,136.6,183.2,134.2Z" fill="#350024"/><path d="M116.8,150.6c-13.7.3-18.5-7.6-14.4-23.8,16.2,8,44.1-14.5,51.7,12.2A100.2,100.2,0,0,1,116.8,150.6Z" fill="#3d002d"/><path d="M116.8,150.6c9.8-1.7,30.3-9,40.9-12.9C155.8,148.2,127.3,151.9,116.8,150.6Z" fill="#3b002c"/><path d="M198.4,110.3a21.4,21.4,0,0,0-18.8,3.4C161.9,86.2,218.7,111.1,198.4,110.3Z" fill="#531641"/><path d="M180.6,84.3c1.4,3.8-11.4,19.8-16.4,13.4C161.2,87.3,169.2,77.8,180.6,84.3Z" fill="#5b2245"/><path d="M164.2,97.7a37.8,37.8,0,0,0,17.2-11.4C182.1,92.6,167.4,110.9,164.2,97.7Z" fill="#531641"/><path d="M131.7,109.7q4.7-12.9,14.7-5.1Q143.4,116.6,131.7,109.7Z" fill="#461632"/><path d="M163.4,91.9c.1,1.6.3,3.1.5,4.7C163.7,95,163.5,93.5,163.4,91.9Z" fill="#531641"/><path d="M62.9,168.3c.5,22.3,29.4-8.9,32.3-11,5.1,20-43.2,57.2-50.9,32.2C46.1,178.5,52.3,171.4,62.9,168.3Z" fill="#370028"/><path d="M88.2,174.6c-.9-10.2,2.2-16.2,9.3-18.1C100.9,162.1,105.6,182,88.2,174.6Z" fill="#370027"/><path d="M435.6,54.3l34-27.9c-.7,2.5-12.9,51.5-22.4,36.1a36.8,36.8,0,0,1,23,21.1c-10.4,13.1-136.3,19.5-136.3,19.6C336.9,74.5,412,56.6,435.6,54.3Z" fill="#2f0020"/><path d="M462.6,77.3c-14.3,16.2-23.3,11.3-27.2-14.7,7.4-8.7,60.8-75.7,90.2-21.9C540.7,68.3,479.7,60.9,462.6,77.3Z" fill="#49003a"/><path d="M454.8,22.9c-9.2-4.4-51.4,76.6-81.9,48.8,12.4,20.6,68.7-62.6,75.5-69.4A32.5,32.5,0,0,1,454.8,22.9Z" fill="#350025"/><path d="M520.1,56l-1.7-28.3c1.5,7.3-48.6-.9-50.7-.8C500.5-.1,569,56.6,532.9,78.3,487.6,75.3,534.8,72.2,520.1,56Z" fill="#620a4f"/><path d="M508.8,23.5c-9.9,1.7-14.1-2.5-12.7-12.7-2.4-15,90.5,1.2,70.9,17-1.7,1.3-40.3-21.1-38.6-5.5A195.5,195.5,0,0,0,551.1,30C552.1,52.8,512.6,24.2,508.8,23.5Z" fill="#6c2957"/><path d="M373.1,70.5c15.8-3.2,45.8-22.8,62.5-16.2a214.5,214.5,0,0,1-77,27.7C360.8,74.8,365.6,71,373.1,70.5Z" fill="#310022"/><path d="M448.4,2.3c2.4,6.4-13.6,37.1-23.5,24.5-13.2-23.1,40.3,5.1,8.5-32.2C440.5-7.5,445.5-5,448.4,2.3Z" fill="#5a2347"/><path d="M497.6,13.1q-21.7,7.1-38.5-8.7c3.5-5,63-7.6,63.2-3.7Z" fill="#6c2957"/><path d="M465.3,4.5c-7.6,2.8-7.6-26.3-2.9-29.2C468.5-21,471.2-2.4,465.3,4.5Z" fill="#6f2e59"/><path d="M442.7,48.1c.9,3.5-.9,5.2-4.7,5.3C439.6,51.7,441.2,49.9,442.7,48.1Z" fill="#4f053f"/><path d="M510-9.4l20.1-1.8q-27.3,34.7-68.6,17A432.5,432.5,0,0,1,510-9.4Z" fill="#73355c"/><path d="M385.9,7.5c1.9-1,31.4-15.6,31.8-15.5C427.6,17.4,398.6,40.6,385.9,7.5Z" fill="#451f31"/><path d="M413.9,14c.7-.2,34.5-23.1,37-13C451.8,4.6,406.3,25,413.9,14Z" fill="#62314c"/><path d="M59.4,169.6C66.7,215.7-.1,65.8,43.9,139a29.8,29.8,0,0,0-12.6,1.2C33,132.1,56.8,165,59.4,169.6Z" fill="#340026"/><path d="M36.8,127.3,5,128.3c2.6-15.8,20.6,10.2,21.9-16.8C37.7,112.6,41,117.9,36.8,127.3Z" fill="#330025"/><path d="M507.5.4c15.6-11.8,96.3-.2,119.1,6.2C608.6,12.8,475.2,25.1,507.5.4Z" fill="#651952"/><path d="M553.3-4.4c-20.8,1.1-23-4.9-6.8-17.8C443.4,74.2,664.2-89.3,553.3-4.4Z" fill="#63034e"/><path d="M551.7-5.9Q566-32.1,569.1,6.2C541.1,25.5,566.3-5.8,551.7-5.9Z" fill="#5e004d"/><path d="M525.5,73.4c1.8-40.1,57.6-17.3,58.2-18.2-22.8,5.3-41,17.6-54.4,36.8a26.9,26.9,0,0,1,18.9-9.8c3.7,2.6-44,21.9-55.8,13.5C500,83.1,511,75.7,525.5,73.4Z" fill="#6a2155"/><path d="M567.5,8.6c-23.1,16.3,40.5,27.9-25.8,21C551,39.3,564.3,16.7,567.5,8.6Z" fill="#73355c"/><path d="M560.9,34.1c17.4,1.4-7.9,17.4-9.4,18C545,46.2,548.7,30.5,560.9,34.1Z" fill="#6c2957"/><path d="M40.9,174c24.3-9.5-.9,17.1-4,15.9C32.2,182.7,35.6,180,40.9,174Z" fill="#370027"/><path d="M34.4,181.3c3.9,13.5-16.6-10.6-10-16.7C32.6,165.8,35.9,171.4,34.4,181.3Z" fill="#3f042e"/><path d="M19.2,202.5c.7-5.3,17.2-19.8,20-8.3C39.7,207.4,23.7,210,19.2,202.5Z" fill="#4e003c"/><path d="M38.1,195.8c-9.4-23.2,15.3,15.5,10.6,23.9A43.3,43.3,0,0,1,38.1,195.8Z" fill="#5b2245"/><path d="M15.5,207.8c10.6-1.1,13.8-10.9,22.6-12C43.1,217,2.9,219.4,15.5,207.8Z" fill="#63034e"/><path d="M58.3,195.4c13-7,26.3-7.4,39.8-1,7.5,4.5-24.4,35.5-31.6,26.1a91.3,91.3,0,0,0,11.6-18.9C72.9,191.7,42.3,226.8,58.3,195.4Z" fill="#670f50"/><path d="M415.1,28.1c59-6.3-40.5,58.2-49.5,40.2C368,66.9,384.8,18.4,415.1,28.1Z" fill="#390228"/><path d="M413.9,28.5q-23.4,21.6-26.4-2.3A81.1,81.1,0,0,1,413.9,28.5Z" fill="#62314c"/><path d="M339.7,85.3c-46.9-.1,26.5-13.3,26.5-13.4C363.2,75.7,345.4,87,339.7,85.3Z" fill="#390228"/><path d="M391.8,23.5c-6.2,4-8.4,4-13.4-6.1Q389.5-3,391.8,23.5Z" fill="#43172c"/><path d="M350.6,57c-4.2,4.3-22.1-2-18.6-4.6C341.7,47,348,48.6,350.6,57Z" fill="#431d2f"/><path d="M352.3,79.4c20.9-7-26.6,20.5-18.7,27.1C373.5,140,454,47.2,485.4,97.2c2.2,6.3-20.3,10-21.5,8.9a86,86,0,0,1,33.9.7c-57.9,29.2-49.2-7-16.3,32.5,5.4-60.7-208.6,29.2-219.9-4.6,5.2-10.7,35.2-9.8,38.4-18.3-.3.9-32.2-20.3-33.2-23.6-7-23.6,36.3,0,36.8-.3,8.8-6.8-53.7,1-57.9.1C260.3,48.9,324,94.1,352.3,79.4Z" fill="#340023"/><path d="M202.4,106.4c-14.7-9.5,54.7-17.5,68.5-9.8C281.9,111.4,216,123.8,202.4,106.4Z" fill="#340023"/><path d="M26.5,110.5l-6.7-3.6Z" fill="#330025"/><path d="M59.4,169.6c-20.6-4.6-2.1-19.8,3.8-22.1C69.5,160.2,68.2,167.5,59.4,169.6Z" fill="#3c002b"/><path d="M34.1,145.1c-5.1-.5-8.4-12.7-.5-11.1C44.6,138.9,44.8,142.6,34.1,145.1Z" fill="#3d002d"/><path d="M130.7,187.7c4.4,1.1,32.3,3.3,32.7,3.6C187.9,236.1,57.8,181,130.7,187.7Z" fill="#4e003c"/><path d="M100.4,207.5c5.9-2.6-21-30.8,25.2-30C129.5,182.8,103.1,206.7,100.4,207.5Z" fill="#3c002b"/><path d="M159.9,197.5c5.1-9.8,25.2-34.9,39.6-19.7C211.6,192.5,170.5,203.1,159.9,197.5Z" fill="#531641"/><path d="M197.9,166.1c-10.3,10.5-33.2-1.3-25.4-16.7C171.6,148.3,210.9,173.9,197.9,166.1Z" fill="#4c003a"/><path d="M117.7,188.9c8.8-12.6,19-22.3,31.2-31.6C160.6,171.4,119.2,191.7,117.7,188.9Z" fill="#370027"/><path d="M117.7,188.9l17.4-7.6c-3.6,4.5-19.1,34.1-28.7,30.1C105.6,201.6,109.3,194.1,117.7,188.9Z" fill="#53093e"/><path d="M183.2,134.2c4.6-5.3,10.2-7,16.9-5.1C178.4,145.5,205.7,153.5,183.2,134.2Z" fill="#501240"/><path d="M197.9,166.1c6.4-2.4,19.7-3.5,24,3.1S196.7,188,197.9,166.1Z" fill="#6f2e59"/><path d="M103.9,177.1a126.8,126.8,0,0,0-9.5,16.8C81.1,194.8,97.5,143.7,103.9,177.1Z" fill="#370028"/><path d="M191.9,146.6c13-.7.1,15.2-8.3,14.6S192.1,146.6,191.9,146.6Z" fill="#460037"/><path d="M170.1,177.9c7.3,8.6-2.4,12.1-8.4,14C150.3,188,170.5,177.6,170.1,177.9Z" fill="#53093e"/><path d="M196.6,177.6a25.7,25.7,0,0,1-15.6,8.8C181,175.5,199.6,172.2,196.6,177.6Z" fill="#4e003c"/><path d="M220.6,137.2c-6.5,7.5-14.8,10.6-24.8,9.3C206,122.3,199.5,150.1,220.6,137.2Z" fill="#651952"/><path d="M58.3,195.4c-1.6-3.6-39.9,13.8-9.1-17.2C43.9,188.3,47,194,58.3,195.4Z" fill="#39002a"/><path d="M84.2,185.8c-4.5-9.5,12.3-13.5,16.1-14.6C98.4,179.8,93,184.7,84.2,185.8Z" fill="#3a0026"/><path d="M442.6,67.6c-.2,23.6-36.2,16.8-46.3,12.5C412.6,78.1,424.2,57.5,442.6,67.6Z" fill="#49003a"/><path d="M385.6,77.2c9.1,2.4,10.9,8.8,5.4,19Q364.9,90.8,385.6,77.2Z" fill="#2c001e"/><path d="M463.6,60.8c-4.2,2.9,29.1-13.5,34-9.5-7-2.6-3.8-2.3,9.4.8C504.6,58,461,82.6,463.6,60.8Z" fill="#5e004b"/><path d="M509.3,75.3c-7.9,5.1-14.5,5.1-19.9-.1C496.3,54.2,521.1,68.9,509.3,75.3Z" fill="#620a4f"/><path d="M505,63.5c8.9-3.3-20.9,11.7-16.2.9C492.6,59.4,502.4,57.6,505,63.5Z" fill="#651952"/><path d="M434.4,43.9,424.1,27.1C431,24.6,442.6,37.7,434.4,43.9Z" fill="#571d44"/><path d="M595,26.3c-.3-.2-39,41.9-50.8,30.3C534.8,41.5,576.3,5.7,595,26.3Z" fill="#651952"/><path d="M554.4,40.1q-20.2,43.2-29.6-14.8Z" fill="#692556"/><path d="M536.2,54.1a33.3,33.3,0,0,1,22.2,2.2A81.4,81.4,0,0,1,520,67.7Z" fill="#793c5f"/><path d="M554.9,21.5c-8.4,11.1-18.8,11.6-31.4,1.5C522.1,20.6,547.9,3.9,554.9,21.5Z" fill="#793c5f"/><path d="M507.7,11.1l7,1.7C511,16.3,508.5,16.1,507.7,11.1Z" fill="#692556"/><path d="M439,13.1c3.7,4-18.1-15.3-9.1-11.4C431.3,2.3,448.4,16.6,439,13.1Z" fill="#67354d"/><path d="M555.6,85.6c-18.7-1.9,14.2-26.4,21.9-30.1C581.1,61.5,559.5,85.7,555.6,85.6Z" fill="#68014e"/><path d="M568.6,60.5c-.5,13.9-17.1,32-29.7,18.2C534.5,70.6,565.1,61.9,568.6,60.5Z" fill="#620a4f"/><path d="M548.8,65c.7,2.5,1.5,5.1-3.2,4Z" fill="#620a4f"/><path d="M563,63.8l-2-.8Z" fill="#620a4f"/><path d="M558.3,33l-4.2-2.8Z" fill="#6c2957"/><path d="M41.1,199.3c1.7-2.7,24.2-4.6,21.7,1C56.4,214.8,46,207,41.1,199.3Z" fill="#6a2155"/><path d="M97.2,199l-.3,2.6Z" fill="#6c1e53"/><path d="M102.1,219c-31.5,18.7,1.7-15.8,6.6-21.8C115,206.2,112.8,213.5,102.1,219Z" fill="#670f50"/><path d="M391.5,36.9c14.7-4.8,18.2-2.6,10.8,6.8C388.4,50.2,396.4,41.4,391.5,36.9Z" fill="#3f0f2c"/><path d="M352.3,79.4l-11.4,5.5C342.9,79.6,347.8,79.9,352.3,79.4Z" fill="#370026"/><path d="M249.8,136c2.8-5.5,75.1-6.8,85.4-5.4,2.4,7.3-37.4,22.4-38.2,21.3-9.8-12.8,88.4-10.2,71.1,4.6,4.1-3.4-56.5,17.8-43,17.6-25.6.4-67.8-6.2-88.8-22Z" fill="#4c003a"/><path d="M253.6,99.5c-7.6,3.3,62.3-37.7,49.5-15C303.4,84,261.7,98.2,253.6,99.5Z" fill="#310021"/><path d="M159.4,204.8c-.5.2-23.4,3.1-6.7-4.5C157.9,197.9,173.1,198.3,159.4,204.8Z" fill="#5e004b"/><path d="M216.2,215c-3.2-.2-44-.1-42.8-2.8,5.9-7.3,43-41.1,53.4-23.4,3.9,9-23.1,7.2-18.9,21.4a80.1,80.1,0,0,1,31.9-3.2Z" fill="#661351"/><path d="M212.4,187.2c-10.1,1.9-14.8-1.2-14.1-9.1C221.6,168,214.8,189,212.4,187.2Z" fill="#6a2155"/><path d="M486.9,132.1c.6,1.4-1.7,16.3-1,20.6-3,7.4-47.4,3.8-52.9-10C441,140.8,480.4,125.2,486.9,132.1Z" fill="#620a4f"/><path d="M220.3,150.6c10.2-5.6,14.6-1.2,13,13.3-10.5,5.5-21.1,5.8-32,.9A218.2,218.2,0,0,1,220.3,150.6Z" fill="#4c023c"/><path d="M217.6,161.3c-8.8,3.2-13.9,1.8-15-4.2C227.6,138.8,214.5,159.9,217.6,161.3Z" fill="#6c2957"/><path d="M218.8,168.1c9.1-21.2,96.9,17.5,8.6,36.2C266.1,196.1,227,175.1,218.8,168.1Z" fill="#4c003a"/><path d="M212.8,177.6c-2.1-.4-4.4,7.1-6.3.2Z" fill="#5e2e49"/><path d="M492,68.4c.9,10.3-9.7,18.7-21.8,10.6C479.1,71.9,484.9,73,492,68.4Z" fill="#651952"/><path d="M481,71.3c-7.6,10.6-12.1,10.7-13.5.2C465.5,65.4,481.6,70,481,71.3Z" fill="#5e004d"/><path d="M316.8,171.4c-14.7,13.5-79.3,13.4-71.7-19.2C253.2,148.6,315,172.8,316.8,171.4Z" fill="#4e003a"/><path d="M226.6,200.3c-2.6,8.9,3.1,8.5,17.1-1.5,18.2,8.6-24.2,22.4-26.7,22.1-3.4-11.1,3.7-15.7,21.5-13.9-11.7.4-23.3.8-35,1C210.5,195.5,218.2,193,226.6,200.3Z" fill="#5e004b"/><path d="M223.5,173.6c13.5,3.7-3.5,14.3-6.7,14.5C212.5,186,223,174.1,223.5,173.6Z" fill="#572143"/><path d="M217.6,161.3l1.1-.4Z" fill="#661351"/><path d="M276.4,185.5c3.6-3.8,47-14.9,55.7-8.9C332.6,177.1,290.8,228.8,276.4,185.5Z" fill="#70005b"/><path d="M276.7,186.4c-.1.1,10.3,52.6-17.6,35.8C257.5,218.5,256.2,176.3,276.7,186.4Z" fill="#7a1c60"/><path d="M257.5,196c2.6,15.7,10.3,24.2-16.4,23.9C244.2,214.8,257.5,196.9,257.5,196Z" fill="#75125e"/><path d="M457.8,272.9c7.7,22.1-58.7,32.2-70,23.6-7-7.1-.8-58.6,26.9-54.7,2.3,7.7.7,14.3-4.8,19.6,8.2,5.9,40.3-27.6,49.3-18.5-17.9-1.7-13.1-7.4,14.3-17.3,18.3,41.8-57.2,20.8-54.7,53.4C420.8,304.1,481.4,242.5,457.8,272.9Z" fill="#700a5d"/><path d="M462.9,262.5c-2.3,1-46.6,37-48.2,18.6-2.4-28,36.1-31.2,53.7-35.1C471.3,253.3,469.4,258.8,462.9,262.5Z" fill="#6d005a"/><path d="M468.7,252.2c-2.8-3.7-2-17.8,5-18.3C484.5,236.6,475.7,250.9,468.7,252.2Z" fill="#6e005a"/><path d="M490.3,222.1c23.6-12.7-19.9,20.2-11.1,13.3C477.9,227.4,481.6,223,490.3,222.1Z" fill="#803568"/><path d="M479.8,233.9c9.1-7.7,14.4-7.9,15.8-.5C450.1,244.5,478.5,233.7,479.8,233.9Z" fill="#700a5d"/><path d="M493.3,230.3l.8-1.8Z" fill="#700a5d"/><path d="M493.5,222.4c-6.5,3.7-92,33.1-82.7,6.4a51.3,51.3,0,0,1,37.5-3.4,11.8,11.8,0,0,1-9.1-6.3C442,204,493.5,211,493.5,222.4Z" fill="#6c005a"/><path d="M461.5,169.9c3.9,9.1-31.7,13.4-31.6,13.5C431.3,173.3,452.4,165.9,461.5,169.9Z" fill="#791f61"/><path d="M433.6,181.2a69,69,0,0,0,27,8.2c-8.8,2.5-81.4,23-80.8,29.2C382.3,206.6,419.9,174.9,433.6,181.2Z" fill="#7c3167"/><path d="M442,212.4c-7.7,8.1-16.6,9.7-26.8,5,2.6-5.2,6.9-7.9,12.9-8q-6.7,4.7-9.3-3Q441,187.3,442,212.4Z" fill="#803568"/><path d="M441.4,204.2,415.6,206C435.7,176.8,455.6,210.8,441.4,204.2Z" fill="#782563"/><path d="M435.7,214.8c20-6.1,3.7,10.8-6.5,10.9C416.2,221,418.4,217.3,435.7,214.8Z" fill="#6d005a"/><path d="M454.2,210.8l-6.2,3.6Z" fill="#6d005a"/><path d="M446.9,194.4c.6-.2-20.5,7.8-17.7-.3C430.8,189.5,446.1,191.7,446.9,194.4Z" fill="#975174"/><path d="M438.4,155.2c8.7-10.3-15.5,13.4-10,3.6C425,168.4,428.3,167.1,438.4,155.2Z" fill="#803568"/><path d="M439.7,165.3c-2.3-13.2,18.2,1.2,17.6.8C453.8,167.4,441.8,171.5,439.7,165.3Z" fill="#8f4b72"/><path d="M256,282.8c-.4,3.3,14.1-27.6,16.6-1.5C271.9,289,259.3,288.8,256,282.8Z" fill="#75125e"/><path d="M237.7,277.1l7.7-5.3Z" fill="#75125e"/><path d="M189.4,237.1c10.3-2.6,13.6-5.2,9.6,3.8C195.3,243.5,179.2,247.7,189.4,237.1Z" fill="#8b426d"/><path d="M202.3,250.3l1.9-2.8Z" fill="#8b426d"/><path d="M314.2,200.3c8.8-7,20.1-29.1,35.2-27.7,17.4,1.6-13.8,22.2-14.9,17.6,11.8-2.3,7.7,15.1,1.5,23C323.2,217.1,315.9,212.8,314.2,200.3Z" fill="#791f61"/><path d="M394.7,160.6c-2,10.2-37.8,12.7-39,6.7S393.2,153.2,394.7,160.6Z" fill="#843468"/><path d="M340.2,162.5c10-3.6,16.5-6.7,11.5,4.6C344.5,173.4,340.7,171.9,340.2,162.5Z" fill="#843468"/><path d="M304.3,177.4q-22.5,18.8-11.1-3.6C294.1,171.6,306.3,172.8,304.3,177.4Z" fill="#802a64"/><path d="M349,165.2c11.8.8,43.5-5.7,53.1,1C385.8,200.2,324.4,177.9,349,165.2Z" fill="#75125e"/><path d="M441.1,165.2c9.8,2.6-25.8,24.1-33.8,6.5C391.7,137.9,438.8,164.9,441.1,165.2Z" fill="#75125e"/><path d="M430.1,154.7c-7.7,10.2-16.3,13.7-25.7,10.3C408.2,158,419.8,143.8,430.1,154.7Z" fill="#7e2d65"/><path d="M404.8,164.5c14.8,3.6-6.3,10.8-10,13.4C378,180,402.8,165.2,404.8,164.5Z" fill="#9a5878"/><path d="M412.7,154.8c3.8,6.9-4.7,3.5-6,6Z" fill="#8b426d"/><path d="M407.2,151l3.6-1.4C410.6,152.7,409.4,153.1,407.2,151Z" fill="#7e2d65"/><path d="M216.7,205.3c.3-.5.5-1,.7-1.4S217,204.8,216.7,205.3Z" fill="#791f61"/><path d="M247.6,269.2c-11.5-11.9,10.4-29,17.7-21.1C265.5,248.4,248.1,269.2,247.6,269.2Z" fill="#782563"/><path d="M262.7,224.4c2.7-1.6,21.1-13.9,21.5-1.4C281.1,228.4,248.8,237.8,262.7,224.4Z" fill="#70005b"/><path d="M267.5,230.6c12.2-10.5,17.1-10.9,14.9-1.3C275.2,237.1,269.2,240.7,267.5,230.6Z" fill="#7e2d65"/><path d="M238.2,191.2c.5-2.2,1-4.4,1.6-6.6C243.6,187.4,241.9,189.4,238.2,191.2Z" fill="#791f61"/><path d="M272.1,235.4c20.6-21.9-.8-34.8,42.1-35.1,0,23-8.4,8.8-21.2,14C301.4,214.4,291.6,255.6,272.1,235.4Z" fill="#7a1c60"/><path d="M310.6,188.3c2.3.1-18.4,12.4-18,3.2C293.2,176,314.8,186.8,310.6,188.3Z" fill="#6d005a"/><path d="M287.5,205.4c-3.3,6.9-8.1,11.6-14.6,14C275.5,205.6,280.4,200.9,287.5,205.4Z" fill="#843468"/><path d="M436.2,238.5a40.5,40.5,0,0,0,28.6,3.3c-6.8,41-42.6-4.1-51.1-.6Z" fill="#88426e"/><path d="M397.3,272.7c-7.6-9.8-5-29.3,7.1-15.5C412,265.9,402.4,270.8,397.3,272.7Z" fill="#6c005a"/><path d="M417,242.6c-2.4,2.4-27.3,8.5-20-3.1C425.2,226.9,416.8,242.6,417,242.6Z" fill="#6d005a"/><path d="M420.9,249.9c7.1,7.3,3.2,12.6-11.8,16.1C403.7,258.9,407.6,253.5,420.9,249.9Z" fill="#803568"/><path d="M407.7,246.6c6.5,5.8-18.8,11.6-22.4,9.2C390.3,246.2,397.8,243.2,407.7,246.6Z" fill="#7c3167"/><path d="M474.3,228.7c5.2-3.9,7.6,3.9-2.9,7.8C455.2,230.5,471.2,233.9,474.3,228.7Z" fill="#782563"/><path d="M403.1,269.9l1.8-3.2Z" fill="#6e005a"/><path d="M416.4,242.6c12.2-8.2-12.7-5.4-5.8-16.6a31.2,31.2,0,0,1,25.7-1.5c-22.9,13.5-18.3-2.6,1.3,15.4Z" fill="#70005b"/><path d="M484.5,223.9l-7.5,2.8Z" fill="#803568"/><path d="M445.9,243.3l-1.8-1Z" fill="#70005b"/><path d="M486.2,224.2l-2-.2Z" fill="#803568"/><path d="M474.2,228.9l-1.4.6Z" fill="#700a5d"/><path d="M432,171.5c6.6-6.2,12.4-6.2,17.5-.2C433.5,185.9,421.2,195.7,432,171.5Z" fill="#803568"/><path d="M453.7,171.2l3.6.6Z" fill="#803568"/><path d="M392.8,207.2c-5.1-2.2-15.4,6.5-15-6.7C380,139.5,433.7,220.6,392.8,207.2Z" fill="#6d005a"/><path d="M392.7,207,405,186.8c-1.7-3.3-40.2,13.3-36.2,3.9a86.2,86.2,0,0,1,49.1-14.4C417.6,178.5,399.1,225.4,392.7,207Z" fill="#700a5d"/><path d="M418.1,204.2c30.1,11.9-32,32.1-34.7,29.9C372.9,225.8,423,200.9,418.1,204.2Z" fill="#88426e"/><path d="M390.8,222.3c-10,7.8-16.7,22.8-16.4,4.5-11-6.5,3.7,35-17.2,7.2C342.5,214.4,393.5,217.4,390.8,222.3Z" fill="#700a5d"/><path d="M385.5,218.4c2.6-.1-36.9,3.6-34.8-8.9C364.4,180.5,381.7,215.4,385.5,218.4Z" fill="#791f61"/><path d="M435.4,191.2c-.8.7,6.3,24.9-15.7,9.7C416.5,187.4,421.7,184.2,435.4,191.2Z" fill="#700a5d"/><path d="M433.5,171.1c4.8,8.9-18.8,24.1-23,15.4S429.3,172,433.5,171.1Z" fill="#8f4b72"/><path d="M419.8,175c.6,2-3.5,15.7-5.8,16.4C401.8,195.8,417.2,176.6,419.8,175Z" fill="#803568"/><path d="M389.9,205.6l1.5-.2Z" fill="#700a5d"/><path d="M371.5,234.8c8.2-5.9,44.8-20.9,57-20.2,8.9-6.7-53.6,68.8-57.3,49.7a81.2,81.2,0,0,1,8.6-22.4,96,96,0,0,1-32,3.4C353.3,236.4,361.1,232.9,371.5,234.8Z" fill="#74185f"/><path d="M430.9,163.9c-2.3-1.3-9.9.4-3.6-5.8C426.9,161,436.9,157.9,430.9,163.9Z" fill="#8b426d"/><path d="M287.8,277.9c7.7,12.6-23.4,1.4-23.9-7C274.3,218.6,294,287.3,287.8,277.9Z" fill="#791f61"/><path d="M265.1,270.7c4.5,5,9.7,5.5,15.7,1.7C263.8,283.9,255.7,271.1,265.1,270.7Z" fill="#8f4b72"/><path d="M265.1,270.7c-6.3,4.6-9.4,5.6-10.8-.6C259.5,260,274.9,265.7,265.1,270.7Z" fill="#9b607c"/><path d="M267.4,269.5c-6.2-4.6-12.8-4.6-19.6.1,3.2-10.6,10.2-16.5,21.1-17.8C275.4,258.5,274.8,264.4,267.4,269.5Z" fill="#8b426d"/><path d="M327.6,289.5c10.3-3.3-3.8-25.4,8.5-23.1,13.4,27.5,19.1,7.9,13.8,30.2a34.5,34.5,0,0,0,20.6.3C373.8,317.1,327.8,293.2,327.6,289.5Z" fill="#791f61"/><path d="M334.9,266.5c-6.2,11-15.5,16-27.9,15.2a41.6,41.6,0,0,1,7.1-20.1C306.4,266.7,337.6,266.6,334.9,266.5Z" fill="#843a6a"/><path d="M305.3,270.5c-2.6,3.5-11.8,9.7-14.1,5C291.8,255.6,311.9,267,305.3,270.5Z" fill="#9b6b83"/><path d="M292.1,277.5c9.9-7.1,12.5-6.6,22.1,2.5C306.8,283,299.4,282.2,292.1,277.5Z" fill="#9b607c"/><path d="M235.2,262.5l1.7.7Z" fill="#7e2d65"/><path d="M380.3,204.6C369.5,214,325.6,176,368.9,174,368.1,174,380.3,203.6,380.3,204.6Z" fill="#70005b"/><path d="M321.7,213.2c9.6-3.3,17.4-.8,23.3,7.6q-15.7,19.2-40.2,18.4C291.8,224.8,319.9,217.7,321.7,213.2Z" fill="#843468"/><path d="M339.8,214.9l-12.3-13.4a212,212,0,0,1,24.4-18.9c1.8,19.6,5.9,21.2,13.4,39.3A43.5,43.5,0,0,1,339.8,214.9Z" fill="#75125e"/><path d="M348,186.4c-4.3,6-10.5,8.2-18.7,6.7C332,190,342.7,177,348,186.4Z" fill="#843468"/><path d="M389.5,171.6c8.2,4.7,15.4,3.2,21.5-4.4,4.8,10.6-29.7,29-36.9,23.2Z" fill="#88426e"/><path d="M374,185.2c-.1,15.9,53.9-24.9,38-15.6C419.9,190.9,359.9,189.9,374,185.2Z" fill="#782563"/><path d="M425.2,173.4l-2.6,1Z" fill="#803568"/><path d="M407.7,170.1l-11.5,5.7C398.1,170.3,401.8,168,407.7,170.1Z" fill="#9b6680"/><path d="M265.2,248.9l-2.9,3.3Z" fill="#8b426d"/><path d="M277.4,242.9c-2.3-12.6,30.3-12.4,26.3-2.8C300.5,244.7,275.2,251.6,277.4,242.9Z" fill="#75125e"/><path d="M292.2,227.8c-5.1-11.7,27.5-13.3-7.8-11.5C311.5,188.3,307.1,232.4,292.2,227.8Z" fill="#7e2d65"/><path d="M377.1,289.5a30.9,30.9,0,0,0-16.7-8.1c-2.1-5.3,26.2-24.9,31.4-16.9C386.5,272.6,381.6,281,377.1,289.5Z" fill="#74185f"/><path d="M380.5,273.6a22.1,22.1,0,0,1,.5-2.5A22.1,22.1,0,0,0,380.5,273.6Z" fill="#70005b"/><path d="M376.2,269.1c-2.2,1.7-22.2,26.6-27.1,17.7a82.8,82.8,0,0,0-4.9-23.1A46,46,0,0,1,376.2,269.1Z" fill="#7e2d65"/><path d="M378.4,210.2c-15.3,9.1,2.3-4.4,2.3-4.6C391.4,205.5,390.7,207,378.4,210.2Z" fill="#7c3167"/><path d="M406.2,229.1c-3.4,3.2-16.7,9-15.1-1C397.3,226.6,405.6,218.5,406.2,229.1Z" fill="#8f4b72"/><path d="M333.7,230.5a45.3,45.3,0,0,1,25.8,1.2c-.3,23.9-44.4,13.7-44.5,15.3Z" fill="#7e2d65"/><path d="M345.9,230.7c-13.8-13.6,7.5-10.7,6.7-15.2C352.8,216.4,356.6,239.5,345.9,230.7Z" fill="#70005b"/><path d="M372.9,235.3c-6,2.3-9.9-11.7-5.5-11.8C381.5,221.3,383.3,225.2,372.9,235.3Z" fill="#70005b"/><path d="M351.2,209.5c-17.5.7,6.2-18.7,13.9-10.2C363.5,206.8,358.9,210.2,351.2,209.5Z" fill="#843a6a"/><path d="M376.2,269.1c-1.9,1.5-29.7-.9-26-8.9C358.7,250,399.4,256.6,376.2,269.1Z" fill="#88426e"/><path d="M373.6,258.1a50.3,50.3,0,0,0-10.9-14.2c7.5-4.6,15.2-5.1,23-1.6Z" fill="#7c3167"/><path d="M285.4,244.9c9.2,8-5.7,22.7-14.7,18.8C271,252.8,276.9,248.4,285.4,244.9Z" fill="#8f4b72"/><path d="M289.2,248.3c-6.9-6.5,23.7-3.8,15.5,2.3S290.2,257,289.2,248.3Z" fill="#7e2d65"/><path d="M344.7,264c-.4,8.8,22.4-3.5,8.4,12.2C344.5,300.4,346,250.7,344.7,264Z" fill="#74185f"/><path d="M305.3,270.5c-.6-8.6,14.1-27.2,16.6-12.8A29.8,29.8,0,0,1,305.3,270.5Z" fill="#9b607c"/><path d="M342.4,261.3c-2.6,1.2-16.8,9.1-16.3,1.9C332.1,253.9,337.5,253.3,342.4,261.3Z" fill="#975174"/><path d="M364.5,198.5l-1.6-.6Z" fill="#791f61"/><path d="M320,256.4l-19.6-3c6.1-13.4,42.1-17.5,45-5.4A44.2,44.2,0,0,1,320,256.4Z" fill="#791f61"/><path d="M307.2,239.2c5.4,4.6-15.4,11.7-12.3,10.4C294.9,242.6,300.3,238.8,307.2,239.2Z" fill="#9b607c"/><path d="M318.8,240.7c.5-7.8,5.5-11.2,14.9-10.2Z" fill="#9a5878"/><path d="M300.2,234.5c-3.5-8.6,3.2-9.5,11.3-12.6C315.9,227.4,300,234.6,300.2,234.5Z" fill="#8f4b72"/><path d="M351,258.3c11.6-10.4-5.9-11.1,20-10.2C376.8,258.1,351,259.7,351,258.3Z" fill="#9a5878"/><path d="M371.4,252.8c.1-1.3.1-2.5.2-3.7C371.5,250.3,371.5,251.5,371.4,252.8Z" fill="#88426e"/><path d="M342.3,250.3c-7.9,15.6-15.4,17.6-22.3,6.1C325.8,248.2,333.2,246.2,342.3,250.3Z" fill="#70005b"/><path d="M499.8,76.6c7.6,22.2-58.8,32.3-70.1,23.6" fill="#700a5d"/><path d="M504.7,104.2c.1-.1-25.6,12.4-26.9,3.6,2.2-10.9,23.7-14.8,26.9-3.6" fill="#7c3167"/><path d="M486.6,92.9c25.8,3.9-10.4,13.3-13.7,12,1.3-9.3,5.9-13.3,13.7-12" fill="#803568"/><path d="M453.5,107.3c12.2,1,2.8,21.3-10.3,19.8-21.6-3.6,4.3-17.4,10.3-19.8" fill="#9a5878"/><path d="M449.3,109.2c2.2.2,24-12.2,29.5-1.8C477.4,123.9,453,111.3,449.3,109.2Z" fill="#803568"/><path d="M446.8,98.2c6.2,6.3,6.4,9.9-7.6,10.6" fill="#8f4b72"/><path d="M478.6,100.5a79.3,79.3,0,0,1-43.5,5.7" fill="#88426e"/><path d="M486.6,102.1c-3.5,3.2-35.9,18.6-17.7,3.6,5.6-2.2,15.1-10.2,17.7-3.6" fill="#9a5878"/></g></svg>